# xmcd
#
# Track frame offsets: 
#        150
#        27694
#        51160
#        64992
#        85394
#        107238
#        139446
#        158332
#        173818
#        187543
#        206276
#        229224
#        245901
#
# Disc length: 3431 seconds
#
# Revision: 1
# Processed by: cddbd v1.5.1PL2 Copyright (c) Steve Scherf et al.
# Submitted via: ExactAudioCopy v0.95a4
#
DISCID=b50d650d
DTITLE=Fernando Noronha and Black Soul - Blues From Hell
DYEAR=2000
DGENRE=Blues
TTITLE0=Sugar Daddy
TTITLE1=I Wonder
TTITLE2=Moondog Boogie
TTITLE3=Clap Your Hands
TTITLE4=Pay Back
TTITLE5=Ain't That a Shame
TTITLE6=Blues From Hell
TTITLE7=Voodoo Girl
TTITLE8=Ride With Me
TTITLE9=Blues Been Good to Me
TTITLE10=Crazy Love
TTITLE11=Fat Cherry Lips
TTITLE12=Acid Trip 2000
EXTD=YEAR: 2000
EXTT0=
EXTT1=
EXTT2=
EXTT3=
EXTT4=
EXTT5=
EXTT6=
EXTT7=
EXTT8=
EXTT9=
EXTT10=
EXTT11=
EXTT12=
PLAYORDER=
